<mxfile host="app.diagrams.net" agent="Mozilla/5.0 (Windows NT 10.0; Win64; x64) AppleWebKit/537.36 (KHTML, like Gecko) Chrome/135.0.0.0 Safari/537.36" version="26.2.14">
  <diagram name="Page-1" id="pXcX20eGakmMhkrYjjIE">
    <mxGraphModel dx="1693" dy="853" grid="1" gridSize="10" guides="1" tooltips="1" connect="1" arrows="1" fold="1" page="1" pageScale="1" pageWidth="827" pageHeight="1169" math="0" shadow="0">
      <root>
        <mxCell id="0" />
        <mxCell id="1" parent="0" />
        <mxCell id="jVRuEa46JdNr6OMZRYEv-1" value="" style="edgeStyle=orthogonalEdgeStyle;rounded=0;orthogonalLoop=1;jettySize=auto;html=1;" parent="1" source="jVRuEa46JdNr6OMZRYEv-3" target="jVRuEa46JdNr6OMZRYEv-5" edge="1">
          <mxGeometry relative="1" as="geometry" />
        </mxCell>
        <mxCell id="jVRuEa46JdNr6OMZRYEv-2" value="로그인" style="edgeLabel;html=1;align=center;verticalAlign=middle;resizable=0;points=[];" parent="jVRuEa46JdNr6OMZRYEv-1" vertex="1" connectable="0">
          <mxGeometry x="-0.3143" relative="1" as="geometry">
            <mxPoint as="offset" />
          </mxGeometry>
        </mxCell>
        <mxCell id="jVRuEa46JdNr6OMZRYEv-3" value="개인 사용자" style="rounded=1;whiteSpace=wrap;html=1;fontSize=12;glass=0;strokeWidth=1;shadow=0;" parent="1" vertex="1">
          <mxGeometry x="360" y="140" width="120" height="40" as="geometry" />
        </mxCell>
        <mxCell id="jVRuEa46JdNr6OMZRYEv-4" value="" style="edgeStyle=orthogonalEdgeStyle;rounded=0;orthogonalLoop=1;jettySize=auto;html=1;" parent="1" source="jVRuEa46JdNr6OMZRYEv-5" target="jVRuEa46JdNr6OMZRYEv-7" edge="1">
          <mxGeometry relative="1" as="geometry" />
        </mxCell>
        <mxCell id="jVRuEa46JdNr6OMZRYEv-5" value="메인페이지 (일간 주간 루틴 완료률 차트/ 달력/ 주간 루틴&amp;nbsp;)" style="rounded=1;whiteSpace=wrap;html=1;fontSize=12;glass=0;strokeWidth=1;shadow=0;" parent="1" vertex="1">
          <mxGeometry x="250" y="240" width="340" height="40" as="geometry" />
        </mxCell>
        <mxCell id="bMJ6ROvr7K24aHqLzWAx-11" value="" style="edgeStyle=orthogonalEdgeStyle;rounded=0;orthogonalLoop=1;jettySize=auto;html=1;" edge="1" parent="1" source="jVRuEa46JdNr6OMZRYEv-7" target="jVRuEa46JdNr6OMZRYEv-5">
          <mxGeometry relative="1" as="geometry" />
        </mxCell>
        <mxCell id="bMJ6ROvr7K24aHqLzWAx-12" value="달력 클릭 -&amp;gt;&amp;nbsp; 등록 모달 열기&lt;span style=&quot;background-color: light-dark(#ffffff, var(--ge-dark-color, #121212)); color: light-dark(rgb(0, 0, 0), rgb(255, 255, 255));&quot;&gt;&amp;nbsp;&lt;/span&gt;" style="edgeLabel;html=1;align=center;verticalAlign=middle;resizable=0;points=[];" vertex="1" connectable="0" parent="bMJ6ROvr7K24aHqLzWAx-11">
          <mxGeometry x="0.32" y="4" relative="1" as="geometry">
            <mxPoint x="14" y="10" as="offset" />
          </mxGeometry>
        </mxCell>
        <mxCell id="bMJ6ROvr7K24aHqLzWAx-14" value="" style="edgeStyle=orthogonalEdgeStyle;rounded=0;orthogonalLoop=1;jettySize=auto;html=1;" edge="1" parent="1" source="jVRuEa46JdNr6OMZRYEv-7" target="bMJ6ROvr7K24aHqLzWAx-13">
          <mxGeometry relative="1" as="geometry" />
        </mxCell>
        <mxCell id="jVRuEa46JdNr6OMZRYEv-7" value="루틴 간편 등록 (카테고리, 제목, 내용)&amp;nbsp;" style="rounded=1;whiteSpace=wrap;html=1;fontSize=12;glass=0;strokeWidth=1;shadow=0;" parent="1" vertex="1">
          <mxGeometry x="305" y="340" width="230" height="40" as="geometry" />
        </mxCell>
        <mxCell id="bMJ6ROvr7K24aHqLzWAx-16" value="" style="edgeStyle=orthogonalEdgeStyle;rounded=0;orthogonalLoop=1;jettySize=auto;html=1;" edge="1" parent="1" source="bMJ6ROvr7K24aHqLzWAx-13" target="bMJ6ROvr7K24aHqLzWAx-15">
          <mxGeometry relative="1" as="geometry" />
        </mxCell>
        <mxCell id="bMJ6ROvr7K24aHqLzWAx-17" value="루틴 상세 페이지 진입" style="edgeLabel;html=1;align=center;verticalAlign=middle;resizable=0;points=[];" vertex="1" connectable="0" parent="bMJ6ROvr7K24aHqLzWAx-16">
          <mxGeometry x="0.1111" y="2" relative="1" as="geometry">
            <mxPoint as="offset" />
          </mxGeometry>
        </mxCell>
        <mxCell id="bMJ6ROvr7K24aHqLzWAx-13" value="루틴 저장" style="whiteSpace=wrap;html=1;rounded=1;glass=0;strokeWidth=1;shadow=0;" vertex="1" parent="1">
          <mxGeometry x="360" y="420" width="120" height="60" as="geometry" />
        </mxCell>
        <mxCell id="bMJ6ROvr7K24aHqLzWAx-19" value="" style="edgeStyle=orthogonalEdgeStyle;rounded=0;orthogonalLoop=1;jettySize=auto;html=1;" edge="1" parent="1" source="bMJ6ROvr7K24aHqLzWAx-15" target="bMJ6ROvr7K24aHqLzWAx-18">
          <mxGeometry relative="1" as="geometry" />
        </mxCell>
        <mxCell id="bMJ6ROvr7K24aHqLzWAx-15" value="이미지, 코멘트 등록" style="whiteSpace=wrap;html=1;rounded=1;glass=0;strokeWidth=1;shadow=0;" vertex="1" parent="1">
          <mxGeometry x="360" y="525" width="120" height="60" as="geometry" />
        </mxCell>
        <mxCell id="bMJ6ROvr7K24aHqLzWAx-21" value="" style="edgeStyle=orthogonalEdgeStyle;rounded=0;orthogonalLoop=1;jettySize=auto;html=1;" edge="1" parent="1" source="bMJ6ROvr7K24aHqLzWAx-18" target="bMJ6ROvr7K24aHqLzWAx-20">
          <mxGeometry relative="1" as="geometry" />
        </mxCell>
        <mxCell id="bMJ6ROvr7K24aHqLzWAx-22" value="루틴 완료 클릭" style="edgeLabel;html=1;align=center;verticalAlign=middle;resizable=0;points=[];" vertex="1" connectable="0" parent="bMJ6ROvr7K24aHqLzWAx-21">
          <mxGeometry y="-2" relative="1" as="geometry">
            <mxPoint as="offset" />
          </mxGeometry>
        </mxCell>
        <mxCell id="bMJ6ROvr7K24aHqLzWAx-18" value="루틴 이미지/코멘트&lt;span style=&quot;background-color: transparent; color: light-dark(rgb(0, 0, 0), rgb(255, 255, 255));&quot;&gt;&amp;nbsp;저장&lt;/span&gt;" style="whiteSpace=wrap;html=1;rounded=1;glass=0;strokeWidth=1;shadow=0;" vertex="1" parent="1">
          <mxGeometry x="350" y="620" width="140" height="60" as="geometry" />
        </mxCell>
        <mxCell id="bMJ6ROvr7K24aHqLzWAx-24" value="" style="edgeStyle=orthogonalEdgeStyle;rounded=0;orthogonalLoop=1;jettySize=auto;html=1;" edge="1" parent="1" source="bMJ6ROvr7K24aHqLzWAx-20" target="bMJ6ROvr7K24aHqLzWAx-23">
          <mxGeometry relative="1" as="geometry" />
        </mxCell>
        <mxCell id="bMJ6ROvr7K24aHqLzWAx-20" value="루틴 완료" style="whiteSpace=wrap;html=1;rounded=1;glass=0;strokeWidth=1;shadow=0;" vertex="1" parent="1">
          <mxGeometry x="360" y="730" width="120" height="60" as="geometry" />
        </mxCell>
        <mxCell id="bMJ6ROvr7K24aHqLzWAx-23" value="개인 기록 저장&amp;nbsp;" style="whiteSpace=wrap;html=1;rounded=1;glass=0;strokeWidth=1;shadow=0;" vertex="1" parent="1">
          <mxGeometry x="360" y="830" width="120" height="60" as="geometry" />
        </mxCell>
      </root>
    </mxGraphModel>
  </diagram>
</mxfile>
